<svg width="586" height="75" viewBox="0 0 586 75" fill="none" xmlns="http://www.w3.org/2000/svg">
<g clip-path="url(#clip0_11_11)">
<path d="M83.65 7.38605C84.1 7.38605 84.3623 7.46105 84.437 7.61105C84.4689 7.67292 84.4857 7.74146 84.486 7.81105C84.4831 7.91294 84.4534 8.01226 84.4 8.09905C84.3 8.27372 84.1373 8.42372 83.912 8.54905C83.6873 8.67372 83.525 8.73605 83.425 8.73605C76.425 8.83605 69.475 8.99872 62.575 9.22405C55.675 9.44872 48.775 9.78605 41.875 10.2361C34.975 10.6861 28.1 11.3111 21.25 12.1111C14.4 12.9111 7.55 13.9611 0.7 15.2611C0.55 15.3611 0.412333 15.3361 0.287 15.1861C0.162333 15.0361 0.075 14.8611 0.025 14.6611C-0.025 14.4611 0 14.2611 0.1 14.0611C0.2 13.8611 0.4 13.7361 0.7 13.6861C14.3 11.0361 28.0123 9.18605 41.837 8.13605C50.942 7.44563 60.0699 7.10071 69.201 7.10205C74.0187 7.10248 78.836 7.19716 83.65 7.38605ZM39.025 18.7861C39.025 18.4861 39.1373 18.2237 39.362 17.9991C39.5873 17.7737 39.8373 17.6111 40.112 17.5111C40.2222 17.4687 40.339 17.4461 40.457 17.4441C40.5872 17.4432 40.7149 17.4796 40.825 17.5491C41.025 17.6737 41.1 17.9611 41.05 18.4111C40.741 23.8307 40.1895 29.2338 39.397 34.6041C39.2907 35.3072 39.179 36.0096 39.062 36.7111C38.1373 42.2611 36.975 47.6611 35.575 52.9111C35.375 53.4611 35.0873 53.7737 34.712 53.8491C34.3813 53.9151 34.216 53.8741 34.216 53.7261C34.2163 53.7041 34.2194 53.6823 34.225 53.6611C35.125 47.4111 36.0373 41.3611 36.962 35.5111C37.8873 29.6611 38.575 24.0861 39.025 18.7861Z" fill="black" stroke="black" stroke-width="0.5" stroke-linecap="round"/>
<path d="M69.1 39.2699C69.0985 39.3836 69.073 39.4958 69.025 39.5989C68.925 39.8236 68.7623 40.0109 68.537 40.1609C68.3123 40.3109 68.0623 40.4236 67.787 40.4989C67.7043 40.5224 67.6189 40.5349 67.533 40.5359C67.4623 40.5383 67.3919 40.5262 67.326 40.5005C67.2601 40.4747 67.2003 40.4357 67.15 40.3859C66.45 39.8359 65.6123 39.4486 64.637 39.2239C64.1919 39.1244 63.737 39.0758 63.281 39.0789C62.5634 39.0869 61.8489 39.1731 61.15 39.3359C59.85 39.6359 58.625 40.1736 57.475 40.9489C56.325 41.7236 55.35 42.5486 54.55 43.4239C53.75 44.2986 53.2123 45.0986 52.937 45.8239C52.6623 46.5486 52.775 46.9859 53.275 47.1359C53.975 47.3859 54.8 47.4486 55.75 47.3239C56.7 47.1986 57.6373 46.9736 58.562 46.6489C59.4873 46.3236 60.3123 45.9609 61.037 45.5609C61.7623 45.1609 62.275 44.7859 62.575 44.4359C63.175 43.7359 63.725 43.3859 64.225 43.3859C64.725 43.3859 65.025 43.5359 65.125 43.8359C65.225 44.5359 65.3123 45.2236 65.387 45.8989C65.4623 46.5736 65.5 47.1859 65.5 47.7359C65.5 47.9859 65.3 48.2609 64.9 48.5609C64.5 48.8609 64.1 48.7859 63.7 48.3359C63.45 48.0859 63.275 47.7609 63.175 47.3609C63.075 46.9609 63.025 46.6359 63.025 46.3859C62.725 46.6859 62.1873 47.0236 61.412 47.3989C60.6373 47.7736 59.75 48.0986 58.75 48.3739C57.75 48.6486 56.725 48.8736 55.675 49.0489C55.063 49.1553 54.4432 49.2111 53.822 49.2159C53.5138 49.2167 53.2059 49.1983 52.9 49.1609C52.2 49.0609 51.6 48.8486 51.1 48.5239C50.8932 48.4074 50.721 48.2381 50.6012 48.0332C50.4814 47.8283 50.4181 47.5953 50.418 47.3579C50.4181 47.3088 50.4204 47.2598 50.425 47.2109C50.475 46.3109 50.8123 45.3236 51.437 44.2489C52.0623 43.1736 52.875 42.1236 53.875 41.0989C54.875 40.0736 56.0373 39.1736 57.362 38.3989C58.6873 37.6236 60.1 37.0859 61.6 36.7859C62.444 36.6079 63.3035 36.5131 64.166 36.5029C64.7671 36.4961 65.3666 36.566 65.95 36.7109C67.1 37.0109 68.125 37.7609 69.025 38.9609C69.0739 39.0566 69.0996 39.1624 69.1 39.2699Z" fill="black" stroke="black" stroke-width="0.5" stroke-linecap="round"/>
<path d="M111.25 47.061C111.45 47.411 111.475 47.7487 111.325 48.074C111.175 48.3987 110.925 48.661 110.575 48.861C110.273 49.0364 109.931 49.1286 109.582 49.128C109.538 49.1281 109.494 49.1267 109.45 49.124C109.05 49.0987 108.725 48.886 108.475 48.486C107.625 47.236 106.725 46.2987 105.775 45.674C105.324 45.3587 104.789 45.185 104.238 45.175C103.75 45.1833 103.272 45.3162 102.85 45.561C100.8 46.661 98.85 47.761 97 48.861C95.15 49.961 93.5 50.836 92.05 51.486C91.6944 51.6169 91.318 51.6823 90.939 51.679C90.8716 51.6791 90.8043 51.6775 90.737 51.674C90.2623 51.6487 89.7623 51.4237 89.237 50.999C88.7123 50.5737 88.15 49.886 87.55 48.936C86.95 47.986 86.35 46.686 85.75 45.036C84.7 45.386 83.725 45.761 82.825 46.161C81.925 46.561 81.0373 47.0237 80.162 47.549C79.2873 48.0737 78.375 48.6487 77.425 49.274C76.475 49.8987 75.425 50.611 74.275 51.411C74.0762 51.5761 73.8307 51.6747 73.573 51.693C73.4495 51.6889 73.329 51.6542 73.2223 51.5918C73.1157 51.5295 73.0262 51.4416 72.962 51.336C72.7366 51.0544 72.6063 50.7084 72.59 50.348C72.5898 50.2513 72.6016 50.1549 72.625 50.061C72.775 49.111 72.9123 48.2737 73.037 47.549C73.1623 46.8237 73.2873 46.111 73.412 45.411C73.5373 44.711 73.6623 43.9737 73.787 43.199C73.9123 42.4237 74.05 41.511 74.2 40.461C74.2 40.311 74.2873 40.161 74.462 40.011C74.6373 39.861 74.8373 39.761 75.062 39.711C75.2873 39.661 75.4873 39.686 75.662 39.786C75.7351 39.8365 75.7929 39.9061 75.829 39.9873C75.8652 40.0684 75.8783 40.1579 75.867 40.246C75.8664 40.318 75.8607 40.3899 75.85 40.461C75.65 41.911 75.475 43.2487 75.325 44.474C75.175 45.6987 74.975 47.261 74.725 49.161C76.175 47.911 77.8623 46.6987 79.787 45.524C81.7123 44.3487 83.725 43.411 85.825 42.711C86.1 42.6098 86.3892 42.5522 86.682 42.54C86.8275 42.5336 86.9719 42.5668 87.1 42.636C87.25 42.736 87.375 42.836 87.475 42.936C87.825 44.686 88.275 45.961 88.825 46.761C89.375 47.561 89.925 48.0987 90.475 48.374C90.8228 48.561 91.2093 48.6644 91.604 48.676C91.7288 48.6763 91.8532 48.6629 91.975 48.636C92.425 48.536 92.75 48.436 92.95 48.336C93.7 48.036 94.5373 47.636 95.462 47.136C96.3873 46.636 97.325 46.1237 98.275 45.599C99.225 45.0737 100.137 44.5737 101.012 44.099C101.887 43.6237 102.675 43.261 103.375 43.011C103.725 42.911 104.237 42.861 104.912 42.861C105.587 42.861 106.3 43.011 107.05 43.311C108 43.811 108.787 44.3237 109.412 44.849C110.037 45.3737 110.65 46.111 111.25 47.061Z" fill="black" stroke="black" stroke-width="0.5" stroke-linecap="round"/>
<path d="M132.1 39.2699C132.099 39.3836 132.073 39.4958 132.025 39.5989C131.925 39.8236 131.762 40.0109 131.537 40.1609C131.312 40.3109 131.062 40.4236 130.787 40.4989C130.704 40.5224 130.619 40.5349 130.533 40.5359C130.462 40.5383 130.392 40.5262 130.326 40.5005C130.26 40.4747 130.2 40.4357 130.15 40.3859C129.45 39.8359 128.612 39.4486 127.637 39.2239C127.192 39.1244 126.737 39.0758 126.281 39.0789C125.563 39.0869 124.849 39.1731 124.15 39.3359C122.85 39.6359 121.625 40.1736 120.475 40.9489C119.325 41.7236 118.35 42.5486 117.55 43.4239C116.75 44.2986 116.212 45.0986 115.937 45.8239C115.662 46.5486 115.775 46.9859 116.275 47.1359C116.975 47.3859 117.8 47.4486 118.75 47.3239C119.7 47.1986 120.637 46.9736 121.562 46.6489C122.487 46.3236 123.312 45.9609 124.037 45.5609C124.762 45.1609 125.275 44.7859 125.575 44.4359C126.175 43.7359 126.725 43.3859 127.225 43.3859C127.725 43.3859 128.025 43.5359 128.125 43.8359C128.225 44.5359 128.312 45.2236 128.387 45.8989C128.462 46.5736 128.5 47.1859 128.5 47.7359C128.5 47.9859 128.3 48.2609 127.9 48.5609C127.5 48.8609 127.1 48.7859 126.7 48.3359C126.45 48.0859 126.275 47.7609 126.175 47.3609C126.075 46.9609 126.025 46.6359 126.025 46.3859C125.725 46.6859 125.187 47.0236 124.412 47.3989C123.637 47.7736 122.75 48.0986 121.75 48.3739C120.75 48.6486 119.725 48.8736 118.675 49.0489C118.063 49.1553 117.443 49.2111 116.822 49.2159C116.514 49.2167 116.206 49.1983 115.9 49.1609C115.2 49.0609 114.6 48.8486 114.1 48.5239C113.893 48.4074 113.721 48.2381 113.601 48.0332C113.481 47.8283 113.418 47.5953 113.418 47.3579C113.418 47.3088 113.42 47.2598 113.425 47.2109C113.475 46.3109 113.812 45.3236 114.437 44.2489C115.062 43.1736 115.875 42.1236 116.875 41.0989C117.875 40.0736 119.037 39.1736 120.362 38.3989C121.687 37.6236 123.1 37.0859 124.6 36.7859C125.444 36.6079 126.303 36.5131 127.166 36.5029C127.767 36.4961 128.367 36.566 128.95 36.7109C130.1 37.0109 131.125 37.7609 132.025 38.9609C132.074 39.0566 132.1 39.1624 132.1 39.2699Z" fill="black" stroke="black" stroke-width="0.5" stroke-linecap="round"/>
<path d="M159.85 40.311C160.15 40.461 160.3 40.636 160.3 40.836C160.3 41.036 160.212 41.211 160.037 41.361C159.862 41.511 159.625 41.611 159.325 41.661C159.226 41.6776 159.126 41.6859 159.025 41.686C158.821 41.6853 158.618 41.6515 158.425 41.586C157.225 41.136 156.2 40.7986 155.35 40.574C154.5 40.3486 153.725 40.211 153.025 40.161C152.799 40.1446 152.573 40.1362 152.346 40.136C151.933 40.1339 151.52 40.1673 151.113 40.236C150.538 40.336 149.95 40.486 149.35 40.686C147.85 41.236 146.562 41.9486 145.487 42.824C144.412 43.6986 143.45 44.661 142.6 45.711C141.75 46.761 140.987 47.861 140.312 49.011C139.637 50.161 138.95 51.261 138.25 52.311C137.85 52.661 137.512 52.811 137.237 52.761C136.962 52.711 136.825 52.336 136.825 51.636V48.074C136.825 47.0986 136.812 46.211 136.787 45.411C136.762 44.611 136.725 43.861 136.675 43.161C136.625 42.461 136.575 41.686 136.525 40.836C136.525 40.636 136.625 40.461 136.825 40.311C137.025 40.161 137.262 40.0736 137.537 40.049C137.576 40.0452 137.615 40.0432 137.654 40.043C137.88 40.0418 138.101 40.1091 138.288 40.236C138.513 40.386 138.625 40.686 138.625 41.136V42.674C138.625 43.2986 138.612 43.9736 138.587 44.699C138.562 45.4236 138.55 46.161 138.55 46.911V48.936C139.65 46.536 140.987 44.4986 142.562 42.824C144.137 41.1486 145.862 39.9236 147.737 39.149C149.247 38.5205 150.866 38.1979 152.501 38.2C152.876 38.2003 153.251 38.2167 153.625 38.249C155.675 38.4236 157.75 39.111 159.85 40.311Z" fill="black" stroke="black" stroke-width="0.5" stroke-linecap="round"/>
<path d="M174.1 39.2699C174.099 39.3836 174.073 39.4958 174.025 39.5989C173.925 39.8236 173.762 40.0109 173.537 40.1609C173.312 40.3109 173.062 40.4236 172.787 40.4989C172.704 40.5224 172.619 40.5349 172.533 40.5359C172.462 40.5383 172.392 40.5262 172.326 40.5005C172.26 40.4747 172.2 40.4357 172.15 40.3859C171.45 39.8359 170.612 39.4486 169.637 39.2239C169.192 39.1244 168.737 39.0758 168.281 39.0789C167.563 39.0869 166.849 39.1731 166.15 39.3359C164.85 39.6359 163.625 40.1736 162.475 40.9489C161.325 41.7236 160.35 42.5486 159.55 43.4239C158.75 44.2986 158.212 45.0986 157.937 45.8239C157.662 46.5486 157.775 46.9859 158.275 47.1359C158.975 47.3859 159.8 47.4486 160.75 47.3239C161.7 47.1986 162.637 46.9736 163.562 46.6489C164.487 46.3236 165.312 45.9609 166.037 45.5609C166.762 45.1609 167.275 44.7859 167.575 44.4359C168.175 43.7359 168.725 43.3859 169.225 43.3859C169.725 43.3859 170.025 43.5359 170.125 43.8359C170.225 44.5359 170.312 45.2236 170.387 45.8989C170.462 46.5736 170.5 47.1859 170.5 47.7359C170.5 47.9859 170.3 48.2609 169.9 48.5609C169.5 48.8609 169.1 48.7859 168.7 48.3359C168.45 48.0859 168.275 47.7609 168.175 47.3609C168.075 46.9609 168.025 46.6359 168.025 46.3859C167.725 46.6859 167.187 47.0236 166.412 47.3989C165.637 47.7736 164.75 48.0986 163.75 48.3739C162.75 48.6486 161.725 48.8736 160.675 49.0489C160.063 49.1553 159.443 49.2111 158.822 49.2159C158.514 49.2167 158.206 49.1983 157.9 49.1609C157.2 49.0609 156.6 48.8486 156.1 48.5239C155.893 48.4074 155.721 48.2381 155.601 48.0332C155.481 47.8283 155.418 47.5953 155.418 47.3579C155.418 47.3088 155.42 47.2598 155.425 47.2109C155.475 46.3109 155.812 45.3236 156.437 44.2489C157.062 43.1736 157.875 42.1236 158.875 41.0989C159.875 40.0736 161.037 39.1736 162.362 38.3989C163.687 37.6236 165.1 37.0859 166.6 36.7859C167.444 36.6079 168.303 36.5131 169.166 36.5029C169.767 36.4961 170.367 36.566 170.95 36.7109C172.1 37.0109 173.125 37.7609 174.025 38.9609C174.074 39.0566 174.1 39.1624 174.1 39.2699Z" fill="black" stroke="black" stroke-width="0.5" stroke-linecap="round"/>
<path d="M233.575 24.336C233.825 23.986 234.1 23.786 234.4 23.736C234.7 23.686 234.95 23.6987 235.15 23.774C235.35 23.8487 235.5 23.9737 235.6 24.149C235.7 24.3237 235.7 24.461 235.6 24.561C233.75 27.261 232.075 29.761 230.575 32.061C229.075 34.361 227.625 36.6236 226.225 38.849C224.825 41.0737 223.437 43.3487 222.062 45.674C220.687 47.9986 219.2 50.511 217.6 53.211C217.35 53.461 217.062 53.561 216.737 53.511C216.412 53.461 216.125 53.211 215.875 52.761C215.575 49.461 215.3 46.4236 215.05 43.649C214.8 40.8736 214.5 38.186 214.15 35.586C213.8 32.986 213.387 30.411 212.912 27.861C212.437 25.311 211.825 22.586 211.075 19.686C210.225 16.336 209.15 13.2987 207.85 10.574C206.55 7.84865 205 5.66099 203.2 4.01099C202.2 3.06099 201.187 2.42365 200.162 2.09898C199.721 1.96085 199.262 1.8917 198.8 1.89399C198.075 1.90544 197.357 2.03792 196.675 2.28598C195.825 2.58598 195.062 3.16099 194.387 4.01099C193.712 4.86099 193.025 5.83599 192.325 6.93599C192.269 7.08219 192.171 7.2084 192.043 7.29839C191.915 7.38839 191.763 7.43805 191.607 7.44099C191.546 7.44095 191.485 7.43526 191.425 7.42399C191.306 7.42032 191.193 7.36965 191.112 7.28305C191.03 7.19646 190.986 7.08101 190.989 6.96199C190.992 6.85077 191.013 6.74073 191.05 6.63599C191.55 5.53599 192.137 4.51098 192.812 3.56099C193.487 2.61099 194.262 1.83599 195.137 1.23599C196.012 0.635985 196.95 0.248652 197.95 0.0739851C198.95 -0.101348 200 0.0359851 201.1 0.485985C202.3 0.985985 203.437 1.69865 204.512 2.62399C205.587 3.54865 206.562 4.58599 207.437 5.73599C208.312 6.88599 209.075 8.09865 209.725 9.37398C210.375 10.6487 210.925 11.886 211.375 13.086C212.425 15.736 213.275 18.5987 213.925 21.674C214.575 24.7487 215.112 27.8987 215.537 31.124C215.962 34.3487 216.287 37.611 216.512 40.911C216.737 44.211 216.95 47.436 217.15 50.586C220.05 45.436 222.775 40.761 225.325 36.561C227.875 32.361 230.625 28.286 233.575 24.336Z" fill="black" stroke="black" stroke-width="0.5" stroke-linecap="round"/>
<path d="M252.4 39.2699C252.399 39.3836 252.373 39.4958 252.325 39.5989C252.225 39.8236 252.062 40.0109 251.837 40.1609C251.612 40.3109 251.362 40.4236 251.087 40.4989C251.004 40.5224 250.919 40.5349 250.833 40.5359C250.762 40.5383 250.692 40.5262 250.626 40.5005C250.56 40.4747 250.5 40.4357 250.45 40.3859C249.75 39.8359 248.912 39.4486 247.937 39.2239C247.492 39.1244 247.037 39.0758 246.581 39.0789C245.863 39.0869 245.149 39.1731 244.45 39.3359C243.15 39.6359 241.925 40.1736 240.775 40.9489C239.625 41.7236 238.65 42.5486 237.85 43.4239C237.05 44.2986 236.512 45.0986 236.237 45.8239C235.962 46.5486 236.075 46.9859 236.575 47.1359C237.275 47.3859 238.1 47.4486 239.05 47.3239C240 47.1986 240.937 46.9736 241.862 46.6489C242.787 46.3236 243.612 45.9609 244.337 45.5609C245.062 45.1609 245.575 44.7859 245.875 44.4359C246.475 43.7359 247.025 43.3859 247.525 43.3859C248.025 43.3859 248.325 43.5359 248.425 43.8359C248.525 44.5359 248.612 45.2236 248.687 45.8989C248.762 46.5736 248.8 47.1859 248.8 47.7359C248.8 47.9859 248.6 48.2609 248.2 48.5609C247.8 48.8609 247.4 48.7859 247 48.3359C246.75 48.0859 246.575 47.7609 246.475 47.3609C246.375 46.9609 246.325 46.6359 246.325 46.3859C246.025 46.6859 245.487 47.0236 244.712 47.3989C243.937 47.7736 243.05 48.0986 242.05 48.3739C241.05 48.6486 240.025 48.8736 238.975 49.0489C238.363 49.1553 237.743 49.2111 237.122 49.2159C236.814 49.2167 236.506 49.1983 236.2 49.1609C235.5 49.0609 234.9 48.8486 234.4 48.5239C234.193 48.4074 234.021 48.2381 233.901 48.0332C233.781 47.8283 233.718 47.5953 233.718 47.3579C233.718 47.3088 233.72 47.2598 233.725 47.2109C233.775 46.3109 234.112 45.3236 234.737 44.2489C235.362 43.1736 236.175 42.1236 237.175 41.0989C238.175 40.0736 239.337 39.1736 240.662 38.3989C241.987 37.6236 243.4 37.0859 244.9 36.7859C245.744 36.6079 246.603 36.5131 247.466 36.5029C248.067 36.4961 248.667 36.566 249.25 36.7109C250.4 37.0109 251.425 37.7609 252.325 38.9609C252.374 39.0566 252.4 39.1624 252.4 39.2699Z" fill="black" stroke="black" stroke-width="0.5" stroke-linecap="round"/>
<path d="M276.175 19.7609C275.625 19.4609 274.887 19.4486 273.962 19.7239C273.037 19.9986 272.075 20.4236 271.075 20.9989C270.075 21.5736 269.1 22.2359 268.15 22.9859C267.2 23.7359 266.425 24.4359 265.825 25.0859C263.475 27.7859 261.787 30.3236 260.762 32.6989C259.737 35.0736 259.175 37.6109 259.075 40.3109C259.125 42.1109 259.55 43.5359 260.35 44.5859C261.15 45.6359 262.112 46.4359 263.237 46.9859C264.362 47.5359 265.55 47.8986 266.8 48.0739C268.05 48.2486 269.175 48.3359 270.175 48.3359C270.424 48.3414 270.674 48.344 270.923 48.3439C272.874 48.3475 274.82 48.169 276.738 47.8109C278.863 47.4109 280.9 46.8609 282.85 46.1609C284.8 45.4609 286.637 44.6359 288.362 43.6859C290.087 42.7359 291.65 41.7359 293.05 40.6859C293.2 40.5359 293.4 40.4236 293.65 40.3489C293.9 40.2736 294.125 40.2359 294.325 40.2359C294.525 40.2359 294.65 40.2986 294.7 40.4239C294.75 40.5486 294.675 40.7359 294.475 40.9859C293.775 41.8359 292.762 42.7486 291.437 43.7239C290.112 44.6986 288.7 45.5359 287.2 46.2359C285.3 47.0859 283.575 47.7859 282.025 48.3359C280.475 48.8859 279.025 49.3236 277.675 49.6489C276.325 49.9736 275.037 50.1986 273.812 50.3239C272.587 50.4486 271.375 50.5109 270.175 50.5109C267.975 50.4609 265.837 50.1109 263.762 49.4609C261.687 48.8109 260.075 47.6609 258.925 46.0109C258.275 45.0609 257.812 44.0486 257.537 42.9739C257.262 41.8986 257.125 40.8486 257.125 39.8239C257.125 38.7986 257.212 37.7986 257.387 36.8239C257.562 35.8486 257.8 34.9359 258.1 34.0859C258.75 32.1359 259.662 30.1986 260.837 28.2739C262.012 26.3486 263.35 24.6609 264.85 23.2109C265.35 22.7109 266 22.1109 266.8 21.4109C267.6 20.7109 268.5 20.0736 269.5 19.4989C270.5 18.9236 271.575 18.4486 272.725 18.0739C273.746 17.7419 274.813 17.5741 275.886 17.5769C276.032 17.577 276.179 17.58 276.325 17.5859C277.525 17.6859 278.337 18.1359 278.762 18.9359C279.029 19.4375 279.167 19.9977 279.164 20.5659C279.162 20.927 279.115 21.2863 279.025 21.6359C278.825 22.3359 278.387 23.2736 277.712 24.4489C277.037 25.6236 276.162 26.8859 275.087 28.2359C274.012 29.5859 272.775 30.9486 271.375 32.3239C269.975 33.6986 268.475 34.9609 266.875 36.1109C266.314 36.5695 265.627 36.8483 264.905 36.9109C264.836 36.9112 264.768 36.9072 264.7 36.8989C264.594 36.9189 264.485 36.9009 264.391 36.8483C264.297 36.7956 264.224 36.7116 264.186 36.6109C264.224 36.4373 264.327 36.285 264.475 36.1859C266.475 34.4859 268.287 32.7109 269.912 30.8609C271.537 29.0109 272.875 27.2986 273.925 25.7239C274.975 24.1486 275.7 22.8109 276.1 21.7109C276.281 21.2727 276.389 20.808 276.42 20.3349C276.435 20.226 276.42 20.115 276.377 20.0139C276.334 19.9128 276.264 19.8253 276.175 19.7609Z" fill="black" stroke="black" stroke-width="0.5" stroke-linecap="round"/>
<path d="M324.85 40.7609C325.1 40.4609 325.262 40.5236 325.337 40.9489C325.349 41.013 325.355 41.0779 325.355 41.1429C325.352 41.3121 325.304 41.4775 325.215 41.6215C325.126 41.7655 325 41.8828 324.85 41.9609C322 43.8109 319.125 45.3736 316.225 46.6489C313.325 47.9236 310.875 48.9109 308.875 49.6109C307.825 49.9609 306.6 50.2986 305.2 50.6239C303.8 50.9486 302.387 51.1359 300.962 51.1859C299.537 51.2359 298.175 51.0859 296.875 50.7359C295.575 50.3859 294.475 49.6859 293.575 48.6359C292.675 47.5859 292.187 46.3609 292.112 44.9609C292.037 43.5609 292.275 42.1986 292.825 40.8739C293.375 39.5486 294.162 38.3986 295.187 37.4239C296.212 36.4486 297.4 35.8859 298.75 35.7359C299.65 35.6859 300.375 35.7609 300.925 35.9609C301.475 36.1609 301.887 36.4236 302.162 36.7489C302.437 37.0736 302.575 37.4486 302.575 37.8739C302.575 38.2986 302.5 38.6859 302.35 39.0359C302.1 39.5359 301.712 39.9859 301.187 40.3859C300.662 40.7859 300.062 41.0986 299.387 41.3239C298.82 41.5103 298.227 41.6035 297.63 41.5999C297.491 41.5998 297.352 41.5951 297.213 41.5859C296.438 41.5359 295.7 41.2859 295 40.8359C294.6 41.5859 294.337 42.3609 294.212 43.1609C294.18 43.3664 294.163 43.574 294.163 43.7819C294.162 44.3478 294.295 44.906 294.55 45.4109C294.9 46.2109 295.412 46.8486 296.087 47.3239C296.762 47.7986 297.512 48.1609 298.337 48.4109C299.162 48.6609 300.025 48.7986 300.925 48.8239C301.054 48.8274 301.182 48.8291 301.311 48.8289C302.086 48.8286 302.86 48.764 303.625 48.6359C307.225 48.0859 310.837 47.0736 314.462 45.5989C318.087 44.1236 321.55 42.5109 324.85 40.7609ZM297.7 37.9859C296.95 38.3859 296.325 38.8859 295.825 39.4859C296.525 39.8359 297.25 39.9986 298 39.9739C298.75 39.9486 299.25 39.6859 299.5 39.1859C299.692 38.9511 299.804 38.6615 299.82 38.3589C299.817 38.1249 299.73 37.8997 299.575 37.7239C299.506 37.638 299.418 37.5693 299.318 37.5234C299.218 37.4774 299.108 37.4553 298.998 37.4589C298.525 37.51 298.075 37.6925 297.7 37.9859Z" fill="black" stroke="black" stroke-width="0.5" stroke-linecap="round"/>
<path d="M343.825 47.136C344.025 47.586 344.037 47.911 343.862 48.111C343.687 48.311 343.425 48.4236 343.075 48.449C343.017 48.453 342.958 48.455 342.9 48.455C342.602 48.4538 342.305 48.401 342.025 48.299C341.675 48.1736 341.475 47.986 341.425 47.736C341.075 46.986 340.8 46.2236 340.6 45.449C340.4 44.6736 340.237 43.886 340.112 43.086C339.987 42.286 339.875 41.511 339.775 40.761C339.675 40.011 339.55 39.336 339.4 38.736C339.398 38.4845 339.302 38.243 339.13 38.0593C338.958 37.8755 338.724 37.763 338.473 37.744C337.989 37.7948 337.53 37.9828 337.15 38.286C336.25 38.886 335.275 39.6486 334.225 40.574C333.175 41.4986 332.087 42.536 330.962 43.686C329.837 44.836 328.7 46.0736 327.55 47.399C326.4 48.7236 325.3 50.061 324.25 51.411C324.051 51.576 323.806 51.6746 323.548 51.693C323.425 51.6889 323.304 51.6541 323.197 51.5917C323.091 51.5294 323.001 51.4415 322.937 51.336C322.712 51.0543 322.581 50.7084 322.565 50.348C322.565 50.2512 322.577 50.1548 322.6 50.061C322.75 49.111 322.875 48.261 322.975 47.511C323.075 46.761 323.187 46.0236 323.312 45.299C323.437 44.5736 323.562 43.7986 323.687 42.974C323.812 42.1486 323.95 41.211 324.1 40.161C324.1 40.011 324.187 39.861 324.362 39.711C324.537 39.561 324.737 39.461 324.962 39.411C325.032 39.3949 325.103 39.3865 325.175 39.386C325.299 39.3833 325.421 39.4181 325.525 39.486C325.675 39.586 325.75 39.811 325.75 40.161C325.65 41.161 325.562 42.2486 325.487 43.424C325.412 44.5986 325.325 46.011 325.225 47.661C325.875 46.711 326.687 45.6486 327.662 44.474C328.637 43.2986 329.662 42.161 330.737 41.061C331.812 39.961 332.912 38.961 334.037 38.061C335.162 37.161 336.225 36.461 337.225 35.961C338.175 35.561 339.025 35.411 339.775 35.511C340.525 35.611 341.05 36.111 341.35 37.011C341.55 37.711 341.712 38.461 341.837 39.261C341.962 40.061 342.087 40.8986 342.212 41.774C342.337 42.6486 342.512 43.536 342.737 44.436C342.962 45.336 343.325 46.236 343.825 47.136Z" fill="black" stroke="black" stroke-width="0.5" stroke-linecap="round"/>
<path d="M367.3 48.4861C367.6 48.3861 367.812 48.3861 367.937 48.4861C368.062 48.5861 368.15 48.7237 368.2 48.8991C368.25 49.0737 368.237 49.2487 368.162 49.4241C368.087 49.5987 368 49.7111 367.9 49.7611C366.95 50.2611 366.087 50.6861 365.312 51.0361C364.537 51.3861 363.775 51.6861 363.025 51.9361C362.275 52.1861 361.475 52.3861 360.625 52.5361C359.775 52.6861 358.8 52.7861 357.7 52.8361C357.15 52.8861 356.462 52.8737 355.637 52.7991C354.812 52.7237 353.975 52.5861 353.125 52.3861C352.275 52.1861 351.487 51.9237 350.762 51.5991C350.037 51.2737 349.475 50.8861 349.075 50.4361C348.475 49.8361 348.15 49.1237 348.1 48.2991C348.093 48.1809 348.089 48.0625 348.089 47.9441C348.094 47.208 348.224 46.4781 348.475 45.7861C348.775 44.9361 349.225 44.1361 349.825 43.3861C350.425 42.6361 351.05 42.0111 351.7 41.5111C353.15 40.2611 354.912 39.2611 356.987 38.5111C359.062 37.7611 361.3 37.3111 363.7 37.1611C366.1 37.0111 368.55 37.1987 371.05 37.7241C373.55 38.2487 375.975 39.1361 378.325 40.3861C378.443 40.4201 378.549 40.486 378.632 40.5765C378.715 40.667 378.771 40.7787 378.794 40.8991C378.784 41.0329 378.723 41.1579 378.625 41.2491C378.325 41.5737 378 41.6611 377.65 41.5111C375.25 40.5611 372.787 39.9237 370.262 39.5991C367.737 39.2737 365.337 39.2237 363.062 39.4491C360.787 39.6737 358.725 40.1361 356.875 40.8361C355.025 41.5361 353.55 42.4111 352.45 43.4611C351.15 44.7111 350.5 46.0111 350.5 47.3611C350.5 48.7111 351.3 49.6611 352.9 50.2111C354.373 50.6037 355.89 50.8067 357.414 50.8151C358.302 50.8159 359.188 50.7393 360.063 50.5861C362.338 50.1861 364.75 49.4861 367.3 48.4861Z" fill="black" stroke="black" stroke-width="0.5" stroke-linecap="round"/>
<path d="M397.75 40.986C398 40.536 398.212 40.311 398.387 40.311C398.562 40.311 398.7 40.436 398.8 40.686C398.9 40.936 398.95 41.236 398.95 41.586C398.95 41.936 398.875 42.211 398.725 42.411C397.364 44.6281 395.501 46.4934 393.285 47.856C393.174 47.9181 393.063 47.9781 392.95 48.036C391.349 48.9049 389.562 49.3774 387.741 49.414C387.502 49.4141 387.263 49.4048 387.025 49.386C385.125 49.236 383.4 48.5987 381.85 47.474C380.3 46.3487 379.1 44.986 378.25 43.386C377.65 42.236 377.425 41.386 377.575 40.836C377.725 40.636 378 40.461 378.4 40.311C378.484 40.2779 378.574 40.2603 378.665 40.259C378.826 40.2763 378.979 40.34 379.105 40.4424C379.231 40.5448 379.325 40.6815 379.375 40.836C380.275 42.586 381.462 44.011 382.937 45.111C384.412 46.211 386 46.836 387.7 46.986C387.943 47.0074 388.187 47.0181 388.431 47.018C389.995 46.9932 391.531 46.5966 392.912 45.861C394.687 44.961 396.3 43.336 397.75 40.986ZM386.575 24.111C387.075 24.111 387.5 24.186 387.85 24.336C388.2 24.486 388.425 24.836 388.525 25.386C388.53 25.4121 388.532 25.4386 388.532 25.465C388.49 25.6647 388.403 25.8524 388.278 26.0141C388.154 26.1757 387.994 26.3073 387.812 26.399C387.287 26.7737 386.675 26.861 385.975 26.661C385.525 26.561 385.187 26.336 384.962 25.986C384.737 25.636 384.625 25.2737 384.625 24.899C384.625 24.5237 384.737 24.186 384.962 23.886C385.187 23.586 385.525 23.436 385.975 23.436C386.175 23.436 386.35 23.561 386.5 23.811C386.55 23.911 386.575 24.011 386.575 24.111Z" fill="black" stroke="black" stroke-width="0.5" stroke-linecap="round"/>
<path d="M412.825 39.2699C412.824 39.3836 412.798 39.4958 412.75 39.5989C412.65 39.8236 412.487 40.0109 412.262 40.1609C412.037 40.3109 411.787 40.4236 411.512 40.4989C411.429 40.5224 411.344 40.5349 411.258 40.5359C411.187 40.5383 411.117 40.5262 411.051 40.5005C410.985 40.4747 410.925 40.4357 410.875 40.3859C410.175 39.8359 409.337 39.4486 408.362 39.2239C407.917 39.1244 407.462 39.0758 407.006 39.0789C406.288 39.0869 405.574 39.1731 404.875 39.3359C403.575 39.6359 402.35 40.1736 401.2 40.9489C400.05 41.7236 399.075 42.5486 398.275 43.4239C397.475 44.2986 396.937 45.0986 396.662 45.8239C396.387 46.5486 396.5 46.9859 397 47.1359C397.7 47.3859 398.525 47.4486 399.475 47.3239C400.425 47.1986 401.362 46.9736 402.287 46.6489C403.212 46.3236 404.037 45.9609 404.762 45.5609C405.487 45.1609 406 44.7859 406.3 44.4359C406.9 43.7359 407.45 43.3859 407.95 43.3859C408.45 43.3859 408.75 43.5359 408.85 43.8359C408.95 44.5359 409.037 45.2236 409.112 45.8989C409.187 46.5736 409.225 47.1859 409.225 47.7359C409.225 47.9859 409.025 48.2609 408.625 48.5609C408.225 48.8609 407.825 48.7859 407.425 48.3359C407.175 48.0859 407 47.7609 406.9 47.3609C406.8 46.9609 406.75 46.6359 406.75 46.3859C406.45 46.6859 405.912 47.0236 405.137 47.3989C404.362 47.7736 403.475 48.0986 402.475 48.3739C401.475 48.6486 400.45 48.8736 399.4 49.0489C398.788 49.1553 398.168 49.2111 397.547 49.2159C397.239 49.2167 396.931 49.1983 396.625 49.1609C395.925 49.0609 395.325 48.8486 394.825 48.5239C394.618 48.4074 394.446 48.2381 394.326 48.0332C394.206 47.8283 394.143 47.5953 394.143 47.3579C394.143 47.3088 394.145 47.2598 394.15 47.2109C394.2 46.3109 394.537 45.3236 395.162 44.2489C395.787 43.1736 396.6 42.1236 397.6 41.0989C398.6 40.0736 399.762 39.1736 401.087 38.3989C402.412 37.6236 403.825 37.0859 405.325 36.7859C406.169 36.6079 407.028 36.5131 407.891 36.5029C408.492 36.4961 409.092 36.566 409.675 36.7109C410.825 37.0109 411.85 37.7609 412.75 38.9609C412.799 39.0566 412.825 39.1624 412.825 39.2699Z" fill="black" stroke="black" stroke-width="0.5" stroke-linecap="round"/>
<path d="M475.825 8.28589C478.525 13.3359 480.462 18.4109 481.637 23.5109C482.302 26.3576 482.641 29.2706 482.648 32.1939C482.648 34.3246 482.461 36.4511 482.088 38.5489C481.213 43.4736 479.187 48.2359 476.012 52.8359C473.342 56.5853 470.115 59.9049 466.443 62.6799C465.06 63.7531 463.636 64.7725 462.175 65.7359C459.975 67.1859 457.587 68.4986 455.012 69.6739C452.437 70.8486 449.787 71.8236 447.062 72.5989C444.337 73.3736 441.562 73.9109 438.737 74.2109C437.542 74.3386 436.342 74.4031 435.14 74.4039C433.57 74.4049 432.003 74.2902 430.45 74.0609C427.7 73.7109 425.087 73.0236 422.612 71.9989C420.137 70.9736 417.775 69.7359 415.525 68.2859C413.275 66.8359 411.112 65.1986 409.037 63.3739C406.962 61.5486 404.975 59.6359 403.075 57.6359C403.048 57.5698 403.035 57.4991 403.035 57.4279C403.056 57.1813 403.163 56.9499 403.337 56.7739C403.424 56.6352 403.561 56.5361 403.72 56.4979C403.763 56.5026 403.804 56.521 403.836 56.5502C403.869 56.5795 403.891 56.6182 403.9 56.6609C405.8 58.4109 407.775 60.0859 409.825 61.6859C411.875 63.2859 414.012 64.7609 416.237 66.1109C418.462 67.4609 420.8 68.6109 423.25 69.5609C425.7 70.5109 428.275 71.1859 430.975 71.5859C432.681 71.8275 434.403 71.9488 436.126 71.9489C439.451 71.9407 442.762 71.5038 445.975 70.6489C451.025 69.3236 455.675 67.3109 459.925 64.6109C464.402 61.822 468.421 58.3577 471.839 54.3409C472.046 54.0917 472.249 53.84 472.45 53.5859C475.65 49.5359 477.862 45.1859 479.087 40.5359C479.841 37.6595 480.22 34.6975 480.213 31.7239C480.209 29.7653 480.059 27.8098 479.762 25.8739C478.987 20.7486 477.225 15.4859 474.475 10.0859C470.225 10.1859 466.112 10.3236 462.137 10.4989C458.162 10.6736 454.075 10.6609 449.875 10.4609C449.836 10.4667 449.797 10.4697 449.758 10.4699C449.695 10.4718 449.631 10.4598 449.573 10.4349C449.515 10.4099 449.462 10.3725 449.42 10.3253C449.378 10.2781 449.346 10.2222 449.327 10.1615C449.309 10.1008 449.303 10.0368 449.312 9.97389C449.287 9.59856 449.425 9.36089 449.725 9.26089C453.925 9.11089 458.087 8.94856 462.212 8.77389C466.337 8.59856 470.5 8.31089 474.7 7.91089C474.95 7.91089 475.225 7.96089 475.525 8.06089C475.675 8.11089 475.775 8.18589 475.825 8.28589Z" fill="black" stroke="black" stroke-width="0.5" stroke-linecap="round"/>
<path d="M516.925 40.3859C517.325 40.2359 517.587 40.2736 517.712 40.4989C517.837 40.7236 517.887 40.9859 517.862 41.2859C517.837 41.5859 517.737 41.8736 517.562 42.1489C517.387 42.4236 517.175 42.5859 516.925 42.6359C514.825 43.0859 512.75 43.4109 510.7 43.6109C508.65 43.8109 506.687 43.9359 504.812 43.9859C503.909 44.0106 503.006 44.0233 502.103 44.0239C501.269 44.0243 500.434 44.0116 499.6 43.9859C498 43.9359 496.625 43.8859 495.475 43.8359C496.175 44.5359 496.912 45.4736 497.687 46.6489C498.462 47.8236 499 49.0109 499.3 50.2109C499.336 50.4116 499.355 50.615 499.357 50.8189C499.393 51.1502 499.309 51.4834 499.119 51.7574C498.93 52.0315 498.648 52.228 498.325 52.3109C498.007 52.348 497.686 52.3667 497.366 52.3669C496.449 52.3716 495.54 52.1998 494.688 51.8609C493.563 51.4109 492.625 50.7359 491.875 49.8359C491.125 48.9359 490.575 47.8609 490.225 46.6109C490.036 45.9325 489.94 45.2313 489.942 44.5269C489.944 43.891 490.014 43.2572 490.15 42.6359C490.3 41.8359 490.525 41.1609 490.825 40.6109C491.125 40.0609 491.4 39.7609 491.65 39.7109C492.25 39.7109 492.475 40.2109 492.325 41.2109C492.175 42.2609 492.15 43.2859 492.25 44.2859C492.35 45.2859 492.575 46.1986 492.925 47.0239C493.275 47.8486 493.75 48.5486 494.35 49.1239C494.95 49.6986 495.675 50.0859 496.525 50.2859C496.625 49.4859 496.362 48.5109 495.737 47.3609C495.112 46.2109 494.225 45.0609 493.075 43.9109C492.875 43.8109 492.762 43.6359 492.737 43.3859C492.712 43.1359 492.75 42.8859 492.85 42.6359C492.95 42.3859 493.075 42.1736 493.225 41.9989C493.375 41.8236 493.525 41.7359 493.675 41.7359C497.225 42.0859 500.975 42.2609 504.925 42.2609C508.875 42.2609 512.875 41.6359 516.925 40.3859Z" fill="black" stroke="black" stroke-width="0.5" stroke-linecap="round"/>
<path d="M557.8 40.3859H558.025C558.275 40.3859 558.4 40.4859 558.4 40.6859C558.4 40.8359 558.337 41.0236 558.212 41.2489C558.087 41.4736 557.9 41.6359 557.65 41.7359C554.5 42.4859 551.525 43.2109 548.725 43.9109C545.925 44.6109 543.25 45.5109 540.7 46.6109C541.15 48.2609 541.375 50.0609 541.375 52.0109C541.375 54.3109 541.037 56.7109 540.362 59.2109C539.687 61.7109 538.637 64.0109 537.212 66.1109C535.787 68.2109 533.95 69.9486 531.7 71.3239C529.45 72.6986 526.75 73.3859 523.6 73.3859C521.3 73.3859 519.375 72.8109 517.825 71.6609C516.275 70.5109 515.5 68.5859 515.5 65.8859C515.5 64.0359 515.95 62.2859 516.85 60.6359C517.75 58.9859 518.887 57.4859 520.262 56.1359C521.637 54.7859 523.15 53.5609 524.8 52.4609C526.45 51.3609 528 50.4359 529.45 49.6859C530 49.3859 530.637 49.0609 531.362 48.7109C532.087 48.3609 532.825 47.9986 533.575 47.6239C534.325 47.2486 535.075 46.8859 535.825 46.5359C536.575 46.1859 537.25 45.8859 537.85 45.6359C537.25 44.3359 536.5 43.3736 535.6 42.7489C534.7 42.1236 533.675 41.8109 532.525 41.8109C530.975 41.8109 529.512 42.2986 528.137 43.2739C526.762 44.2486 525.4 45.3359 524.05 46.5359C522.7 47.7359 521.35 48.8236 520 49.7989C518.65 50.7736 517.225 51.2609 515.725 51.2609C515.475 51.2109 515.25 51.1109 515.05 50.9609C514.6 50.7109 514.375 50.1609 514.375 49.3109C514.375 48.7109 514.437 47.8736 514.562 46.7989C514.687 45.7236 514.862 44.6609 515.087 43.6109C515.312 42.5609 515.575 41.6486 515.875 40.8739C516.175 40.0986 516.5 39.7109 516.85 39.7109C517.1 39.7109 517.387 39.7986 517.712 39.9739C517.826 40.0266 517.921 40.1112 517.988 40.2174C518.054 40.3236 518.088 40.4468 518.085 40.5719C518.084 40.661 518.072 40.7497 518.05 40.8359C517.85 41.8359 517.537 43.0986 517.112 44.6239C516.687 46.1486 516.475 47.7109 516.475 49.3109C517.875 48.6609 519.2 47.7986 520.45 46.7239C521.7 45.6486 522.962 44.5859 524.237 43.5359C525.512 42.4859 526.85 41.5859 528.25 40.8359C529.65 40.0859 531.2 39.7109 532.9 39.7109C534.5 39.7109 535.9 40.2359 537.1 41.2859C538.3 42.3359 539.225 43.5109 539.875 44.8109C541.375 44.2109 542.825 43.6859 544.225 43.2359C545.625 42.7859 547.05 42.3986 548.5 42.0739C549.95 41.7486 551.437 41.4486 552.962 41.1739C554.487 40.8986 556.1 40.6359 557.8 40.3859ZM531.4 69.2609C532.8 68.3609 534.025 67.3109 535.075 66.1109C536.125 64.9109 536.975 63.5986 537.625 62.1739C538.275 60.7486 538.762 59.2736 539.087 57.7489C539.412 56.2236 539.575 54.6859 539.575 53.1359C539.575 52.1359 539.512 51.1486 539.387 50.1739C539.262 49.1986 539.075 48.2609 538.825 47.3609C535.575 48.6109 532.65 50.0236 530.05 51.5989C527.45 53.1736 525.1 54.9859 523 57.0359C522.55 57.4859 522.062 58.0359 521.537 58.6859C521.012 59.3359 520.525 60.0486 520.075 60.8239C519.625 61.5986 519.25 62.4109 518.95 63.2609C518.65 64.1109 518.5 64.9359 518.5 65.7359C518.5 66.6859 518.712 67.4986 519.137 68.1739C519.562 68.8486 520.112 69.3986 520.787 69.8239C521.462 70.2486 522.2 70.5609 523 70.7609C523.8 70.9609 524.6 71.0609 525.4 71.0609C527.6 71.0609 529.6 70.4609 531.4 69.2609Z" fill="black" stroke="black" stroke-width="0.5" stroke-linecap="round"/>
<path d="M572.275 39.2699C572.274 39.3836 572.248 39.4958 572.2 39.5989C572.1 39.8236 571.937 40.0109 571.712 40.1609C571.487 40.3109 571.237 40.4236 570.962 40.4989C570.879 40.5224 570.794 40.5349 570.708 40.5359C570.637 40.5383 570.567 40.5262 570.501 40.5005C570.435 40.4747 570.375 40.4357 570.325 40.3859C569.625 39.8359 568.787 39.4486 567.812 39.2239C567.367 39.1244 566.912 39.0758 566.456 39.0789C565.738 39.0869 565.024 39.1731 564.325 39.3359C563.025 39.6359 561.8 40.1736 560.65 40.9489C559.5 41.7236 558.525 42.5486 557.725 43.4239C556.925 44.2986 556.387 45.0986 556.112 45.8239C555.837 46.5486 555.95 46.9859 556.45 47.1359C557.15 47.3859 557.975 47.4486 558.925 47.3239C559.875 47.1986 560.812 46.9736 561.737 46.6489C562.662 46.3236 563.487 45.9609 564.212 45.5609C564.937 45.1609 565.45 44.7859 565.75 44.4359C566.35 43.7359 566.9 43.3859 567.4 43.3859C567.9 43.3859 568.2 43.5359 568.3 43.8359C568.4 44.5359 568.487 45.2236 568.562 45.8989C568.637 46.5736 568.675 47.1859 568.675 47.7359C568.675 47.9859 568.475 48.2609 568.075 48.5609C567.675 48.8609 567.275 48.7859 566.875 48.3359C566.625 48.0859 566.45 47.7609 566.35 47.3609C566.25 46.9609 566.2 46.6359 566.2 46.3859C565.9 46.6859 565.362 47.0236 564.587 47.3989C563.812 47.7736 562.925 48.0986 561.925 48.3739C560.925 48.6486 559.9 48.8736 558.85 49.0489C558.238 49.1553 557.618 49.2111 556.997 49.2159C556.689 49.2167 556.381 49.1983 556.075 49.1609C555.375 49.0609 554.775 48.8486 554.275 48.5239C554.068 48.4074 553.896 48.2381 553.776 48.0332C553.656 47.8283 553.593 47.5953 553.593 47.3579C553.593 47.3088 553.595 47.2598 553.6 47.2109C553.65 46.3109 553.987 45.3236 554.612 44.2489C555.237 43.1736 556.05 42.1236 557.05 41.0989C558.05 40.0736 559.212 39.1736 560.537 38.3989C561.862 37.6236 563.275 37.0859 564.775 36.7859C565.619 36.6079 566.478 36.5131 567.341 36.5029C567.942 36.4961 568.542 36.566 569.125 36.7109C570.275 37.0109 571.3 37.7609 572.2 38.9609C572.249 39.0566 572.275 39.1624 572.275 39.2699Z" fill="black" stroke="black" stroke-width="0.5" stroke-linecap="round"/>
<path d="M580.9 36.111C580.9 36.361 580.787 36.5237 580.562 36.599C580.337 36.6737 580.1 36.7737 579.85 36.899C579.6 37.0237 579.362 37.1987 579.137 37.424C578.912 37.6487 578.8 38.011 578.8 38.511C578.8 39.261 578.962 40.086 579.287 40.986C579.612 41.886 580.05 42.8487 580.6 43.874C581.15 44.8987 581.775 45.9987 582.475 47.174C583.175 48.3487 583.875 49.561 584.575 50.811C584.875 51.511 585.025 52.086 585.025 52.536C585.025 53.486 584.6 54.1237 583.75 54.449C582.9 54.7737 582.05 54.936 581.2 54.936C580.05 54.936 578.8 54.7237 577.45 54.299C576.1 53.8737 574.825 53.236 573.625 52.386C573.525 52.336 573.475 52.236 573.475 52.086C573.475 51.786 573.725 51.4487 574.225 51.074C574.725 50.6987 575.15 50.511 575.5 50.511C575.65 50.511 575.75 50.536 575.8 50.586C576.55 50.986 577.4 51.4237 578.35 51.899C579.3 52.3737 580.125 52.611 580.825 52.611C581.325 52.611 581.575 52.461 581.575 52.161C581.575 52.111 581.562 52.061 581.537 52.011C581.512 51.961 581.5 51.911 581.5 51.861C580.95 50.461 580.387 49.236 579.812 48.186C579.237 47.136 578.712 46.1737 578.237 45.299C577.762 44.4237 577.375 43.5737 577.075 42.749C576.775 41.9237 576.625 41.011 576.625 40.011C576.625 38.561 576.975 37.4737 577.675 36.749C578.375 36.0237 579.25 35.661 580.3 35.661C580.37 35.6421 580.443 35.6394 580.514 35.6531C580.585 35.6667 580.652 35.6964 580.71 35.7397C580.768 35.7831 580.815 35.8391 580.848 35.9034C580.881 35.9677 580.899 36.0387 580.9 36.111Z" fill="black" stroke="black" stroke-width="0.5" stroke-linecap="round"/>
</g>
<defs>
<clipPath id="clip0_11_11">
<rect width="585.03" height="74.404" fill="white"/>
</clipPath>
</defs>
</svg>
